<?xml version="1.0" standalone="no"?><!DOCTYPE svg PUBLIC "-//W3C//DTD SVG 1.1//EN" "http://www.w3.org/Graphics/SVG/1.1/DTD/svg11.dtd"><svg t="1771194069601" class="icon" viewBox="0 0 1024 1024" version="1.1" xmlns="http://www.w3.org/2000/svg" p-id="5765" xmlns:xlink="http://www.w3.org/1999/xlink" width="200" height="200"><path d="M71.928 400.708a19.928 19.928 0 0 0-13.822 5.574A19.98 19.98 0 0 0 52 419.894v44.364a20.034 20.034 0 0 0 6.332 13.184 19.958 19.958 0 0 0 27.188 0 20.006 20.006 0 0 0 6.332-13.184v-44.364a19.97 19.97 0 0 0-6.106-13.612 19.924 19.924 0 0 0-13.818-5.574z m110.32-55.09a19.936 19.936 0 0 0-13.824 5.574 20.014 20.014 0 0 0-6.106 13.614v99.454a20.044 20.044 0 0 0 6.332 13.184 19.958 19.958 0 0 0 27.188 0 20.02 20.02 0 0 0 6.334-13.184v-99.454a19.996 19.996 0 0 0-6.106-13.614 19.922 19.922 0 0 0-13.818-5.574z m109.728-75.622c-5.154 0-10.108 2-13.82 5.576a19.974 19.974 0 0 0-6.106 13.616v215.126a20.012 20.012 0 0 0 6.332 13.18 19.952 19.952 0 0 0 27.188 0 20.022 20.022 0 0 0 6.334-13.18V289.188a19.992 19.992 0 0 0-6.106-13.616 19.938 19.938 0 0 0-13.822-5.576z m110.302 75.622a19.928 19.928 0 0 0-13.82 5.574 19.986 19.986 0 0 0-6.106 13.614v99.454a20.028 20.028 0 0 0 6.334 13.184 19.964 19.964 0 0 0 27.188 0 20.026 20.026 0 0 0 6.332-13.184v-99.454a20.004 20.004 0 0 0-6.106-13.614 19.936 19.936 0 0 0-13.822-5.574z m109.814 55.09a19.932 19.932 0 0 0-13.822 5.574 19.986 19.986 0 0 0-6.106 13.612v44.364a20.046 20.046 0 0 0 6.334 13.184 19.96 19.96 0 0 0 27.188 0 20.016 20.016 0 0 0 6.332-13.184v-44.364c-0.204-5.156-2.39-10.036-6.106-13.612s-8.664-5.574-13.82-5.574z m110.218-55.09a19.928 19.928 0 0 0-13.822 5.574 20.004 20.004 0 0 0-6.106 13.614v99.454a20.034 20.034 0 0 0 6.332 13.184 19.966 19.966 0 0 0 27.19 0 20.028 20.028 0 0 0 6.334-13.184v-99.454a19.996 19.996 0 0 0-6.106-13.614 19.928 19.928 0 0 0-13.822-5.574z m109.768-75.622a19.94 19.94 0 0 0-13.824 5.576 19.998 19.998 0 0 0-6.102 13.616v215.126a20.002 20.002 0 0 0 19.926 18.526 19.966 19.966 0 0 0 13.596-5.346 20.012 20.012 0 0 0 6.332-13.18V289.188a20 20 0 0 0-6.106-13.616 19.93 19.93 0 0 0-13.822-5.576z m110.13 75.622a19.92 19.92 0 0 0-13.82 5.574 19.996 19.996 0 0 0-6.106 13.614v99.454a20.016 20.016 0 0 0 6.332 13.184 19.962 19.962 0 0 0 27.19 0 20.026 20.026 0 0 0 6.332-13.184v-99.454a19.988 19.988 0 0 0-6.108-13.614 19.93 19.93 0 0 0-13.82-5.574z m123.686 60.666a19.93 19.93 0 0 0-27.642 0 19.98 19.98 0 0 0-6.106 13.612v44.364a20.016 20.016 0 0 0 6.332 13.184 19.96 19.96 0 0 0 27.19 0A20.026 20.026 0 0 0 972 464.26v-44.364a19.992 19.992 0 0 0-6.106-13.612z" fill="#09383D" p-id="5766"></path><path d="M501.742 668.868a47.48 47.48 0 0 0-16.786-9.792l-27.672-10.286a14.834 14.834 0 0 1-7.56-7.21 9.458 9.458 0 0 1 0.31-8.41c0.494-0.912 1.116-1.752 1.844-2.49 0.848-0.86 1.798-1.612 2.83-2.244 0.41-0.252 0.83-0.49 1.256-0.708a29.27 29.27 0 0 1 9.866-2.876 57.414 57.414 0 0 1 17.652 0.188 149.72 149.72 0 0 1 20.464 3.668l1.43 0.318v-33.91l-2.646-0.568a179.824 179.824 0 0 0-20.814-3.712 106.79 106.79 0 0 0-27.37-0.118 59.114 59.114 0 0 0-31.51 12.692 41.876 41.876 0 0 0-13.46 18.584 51.13 51.13 0 0 0-0.032 34.55 38.778 38.778 0 0 0 9.678 14.626 55.47 55.47 0 0 0 12.524 9.09 86.07 86.07 0 0 0 19.044 7.488c2.186 0.656 4.358 1.348 6.522 2.076l3.278 1.206c0.314 0.126 0.626 0.252 0.938 0.382a24.468 24.468 0 0 1 8.668 5.358 15.364 15.364 0 0 1 3.88 5.822 12.794 12.794 0 0 1 0.024 6.174 13.094 13.094 0 0 1-6.334 7.608 31.39 31.39 0 0 1-10.556 3.304c-5.408 0.86-10.896 1.138-16.364 0.826a186.664 186.664 0 0 1-21.348-2.854c-3.69-0.756-7.36-1.618-11.002-2.578l-1.368-0.344-0.154 36.756 2.682 0.46c8.422 1.576 16.924 2.67 25.468 3.282 7.484 0.694 15.006 0.84 22.512 0.44 7.17-0.52 14.26-1.86 21.126-3.992a58.414 58.414 0 0 0 21.914-11.704 44.276 44.276 0 0 0 12.764-18.324 50.518 50.518 0 0 0-0.254-36.896 41.33 41.33 0 0 0-11.444-15.882z m-285.796-78.696a89.556 89.556 0 0 0-34.63 7.932 79.12 79.12 0 0 0-28.352 21.946c-23.916 30.306-24.554 72.916-1.556 103.926a81.322 81.322 0 0 0 45.082 29.036 105.536 105.536 0 0 0 57.046-2.002l3.13-0.862v-42.678l-0.834 0.366a78.7 78.7 0 0 1-30.712 7.808 45.116 45.116 0 0 1-30.916-9.126 39.606 39.606 0 0 1-13.46-19.144 46.108 46.108 0 0 1-0.906-25.6 39.244 39.244 0 0 1 13.706-21.892 41.032 41.032 0 0 1 21.532-9.302 70.89 70.89 0 0 1 40.674 7.646l0.918 0.472v-42.92l-1.946-0.522a108.764 108.764 0 0 0-38.776-5.084z m96.258 162.794h40.294v-160.07h-40.294v160.07z m324.792-162.794a89.572 89.572 0 0 0-34.63 7.93 79.172 79.172 0 0 0-28.352 21.948c-23.916 30.306-24.552 72.916-1.552 103.926a81.296 81.296 0 0 0 45.08 29.036 105.53 105.53 0 0 0 57.044-2.002l3.128-0.862v-42.678l-0.836 0.366a78.69 78.69 0 0 1-30.712 7.808 45.106 45.106 0 0 1-30.912-9.126 39.608 39.608 0 0 1-13.46-19.146 46.108 46.108 0 0 1-0.908-25.6 39.246 39.246 0 0 1 13.708-21.892 41.032 41.032 0 0 1 21.532-9.302 70.9 70.9 0 0 1 40.676 7.646l0.914 0.472v-42.92l-1.946-0.522a108.79 108.79 0 0 0-38.774-5.082z m212.318 12.496a84.506 84.506 0 0 0-84.958-2.386 84.776 84.776 0 0 0-44.184 72.718 84.268 84.268 0 0 0 31.946 64.776 83.98 83.98 0 0 0 70.306 16.152c33.498-6.318 59.602-32.724 65.576-66.334s-9.424-67.416-38.686-84.926z m-2.654 75.074a42.124 42.124 0 0 1-15.542 28.206 41.974 41.974 0 0 1-59.06-6.628c-6.956-8.72-10.164-19.854-8.924-30.948s6.83-21.24 15.54-28.206 19.826-10.18 30.902-8.94c11.076 1.244 21.206 6.844 28.16 15.566s10.164 19.856 8.924 30.95z" fill="#CB0F19" p-id="5767"></path></svg>