<?xml version="1.0" standalone="no"?><!DOCTYPE svg PUBLIC "-//W3C//DTD SVG 1.1//EN" "http://www.w3.org/Graphics/SVG/1.1/DTD/svg11.dtd"><svg t="1771193690303" class="icon" viewBox="0 0 1856 1024" version="1.1" xmlns="http://www.w3.org/2000/svg" p-id="45640" xmlns:xlink="http://www.w3.org/1999/xlink" width="362.5" height="200"><path d="M88.746667 457.386667c-20.48 0-37.546667-17.066667-37.546667-37.546667V341.333333c0-20.48 17.066667-37.546667 37.546667-37.546666 20.48 0 37.546667 17.066667 37.546666 37.546666v78.506667c0 20.48-17.066667 37.546667-37.546666 37.546667zM928.426667 457.386667c-20.48 0-37.546667-17.066667-37.546667-37.546667V341.333333c0-20.48 17.066667-37.546667 37.546667-37.546666 20.48 0 37.546667 17.066667 37.546666 37.546666v78.506667c3.413333 20.48-13.653333 37.546667-37.546666 37.546667zM1778.346667 457.386667c-20.48 0-37.546667-17.066667-37.546667-37.546667V341.333333c0-20.48 17.066667-37.546667 37.546667-37.546666 20.48 0 37.546667 17.066667 37.546666 37.546666v78.506667c0 20.48-17.066667 37.546667-37.546666 37.546667zM1563.306667 457.386667c-20.48 0-37.546667-17.066667-37.546667-37.546667V238.933333c0-20.48 17.066667-37.546667 37.546667-37.546666 20.48 0 37.546667 17.066667 37.546666 37.546666v180.906667c0 20.48-17.066667 37.546667-37.546666 37.546667zM300.373333 457.386667c-20.48 0-37.546667-17.066667-37.546666-37.546667V238.933333c0-20.48 17.066667-37.546667 37.546666-37.546666 20.48 0 37.546667 17.066667 37.546667 37.546666v180.906667c0 20.48-17.066667 37.546667-37.546667 37.546667zM720.213333 457.386667c-20.48 0-37.546667-17.066667-37.546666-37.546667V238.933333c0-20.48 17.066667-37.546667 37.546666-37.546666 20.48 0 37.546667 17.066667 37.546667 37.546666v180.906667c0 20.48-17.066667 37.546667-37.546667 37.546667zM1140.053333 457.386667c-20.48 0-37.546667-17.066667-37.546666-37.546667V238.933333c0-20.48 17.066667-37.546667 37.546666-37.546666 20.48 0 37.546667 17.066667 37.546667 37.546666v180.906667c3.413333 20.48-13.653333 37.546667-37.546667 37.546667zM1355.093333 532.48c-20.48 0-37.546667-17.066667-37.546666-37.546667V92.16c0-20.48 17.066667-37.546667 37.546666-37.546667 20.48 0 37.546667 17.066667 37.546667 37.546667v402.773333c0 20.48-17.066667 37.546667-37.546667 37.546667zM512 532.48c-20.48 0-37.546667-17.066667-37.546667-37.546667V92.16c0-20.48 17.066667-37.546667 37.546667-37.546667 20.48 0 37.546667 17.066667 37.546667 37.546667v402.773333c0 20.48-17.066667 37.546667-37.546667 37.546667z" fill="#015F85" p-id="45641"></path><path d="M443.733333 675.84c-78.506667-34.133333-245.76 0-228.693333 174.08 6.826667 64.853333 75.093333 163.84 228.693333 119.466667v-78.506667s-139.946667 54.613333-153.6-64.853333c-3.413333-40.96 34.133333-112.64 150.186667-71.68l3.413333-78.506667zM1252.693333 675.84c-78.506667-34.133333-245.76 0-228.693333 174.08 6.826667 64.853333 75.093333 163.84 228.693333 119.466667v-78.506667s-139.946667 54.613333-153.6-64.853333c-3.413333-40.96 34.133333-112.64 150.186667-71.68l3.413333-78.506667zM549.546667 669.013333h78.506666v303.786667h-78.506666zM1491.626667 665.6c-85.333333 0-157.013333 71.68-157.013334 157.013333s71.68 157.013333 157.013334 157.013334 157.013333-71.68 157.013333-157.013334-68.266667-157.013333-157.013333-157.013333z m0 242.346667c-44.373333 0-81.92-37.546667-81.92-81.92 0-44.373333 37.546667-81.92 81.92-81.92 44.373333 0 81.92 37.546667 81.92 81.92 0 44.373333-34.133333 81.92-81.92 81.92zM918.186667 679.253333s-105.813333-40.96-163.84 23.893334c-58.026667 64.853333 13.653333 139.946667 75.093333 153.6 13.653333 3.413333 44.373333 17.066667 34.133333 44.373333-13.653333 34.133333-109.226667 17.066667-129.706666 6.826667v68.266666s122.88 23.893333 177.493333-23.893333c10.24-6.826667 64.853333-81.92 0-133.12-13.653333-10.24-27.306667-20.48-68.266667-34.133333-40.96-6.826667-47.786667-51.2 0-54.613334 47.786667-3.413333 75.093333 6.826667 75.093334 6.826667v-58.026667z" fill="#B21A19" p-id="45642"></path></svg>