 <?xml version="1.0" standalone="no"?><!DOCTYPE svg PUBLIC "-//W3C//DTD SVG 1.1//EN" "http://www.w3.org/Graphics/SVG/1.1/DTD/svg11.dtd"><svg t="1771193668437" class="icon" viewBox="0 0 1093 1024" version="1.1" xmlns="http://www.w3.org/2000/svg" p-id="43679" xmlns:xlink="http://www.w3.org/1999/xlink" width="213.4765625" height="200"><path d="M47.639273 911.127273H135.68v-72.471273h39.633455v178.967273H135.656727v-74.798546H47.639273v74.798546H8.005818v-178.967273h39.633455v72.494545z m199.447272 34.676363c0 31.650909 9.704727 44.869818 42.379637 44.869819 32.698182 0 42.193455-13.195636 42.193454-44.893091v-107.124364h39.633455v108.125091c0 22.877091-2.653091 38.609455-10.984727 48.081454-15.499636 17.477818-38.027636 24.622545-70.725819 24.622546-32.791273 0-55.552-7.261091-71.028363-24.622546-8.657455-9.681455-10.798545-25.413818-10.798546-48.081454v-108.125091h39.330909v107.124364z m253.463273-107.147636l80.221091 178.967273h-44.008727l-17.314909-42.589091h-81.687273l-16.779636 42.589091h-41.890909l79.685818-178.967273h41.774545z m-49.989818 104.494545h56.087273l-28.532364-68.747636-27.554909 68.747636z m148.154182-104.494545l43.473454 137.611636 36.631273-137.611636h46.685091l42.193455 137.611636 40.587636-137.611636h40.610909l-58.228364 178.967273H742.167273l-40.029091-133.538909-35.165091 133.538909h-48.174546l-62.603636-178.967273h42.519273z m303.476363 72.704h109.47491v31.232h-109.684364c0.209455 32.232727 13.568 43.892364 44.753454 43.892364h64.93091v31.138909h-66.746182c-22.760727 0-40.378182-1.768727-58.647273-15.732364-19.316364-14.638545-28.858182-38.167273-28.858182-70.516364 0-63.232 28.113455-92.718545 88.576-92.718545h65.792v31.115636h-64.930909c-28.625455 0-43.054545 13.544727-44.683636 41.588364z m144.407273 106.263273v-178.967273h41.355637v178.967273H1046.574545z" fill="#000000" p-id="43680"></path><path d="M471.272727 599.365818s1.908364-1.396364 0.930909-3.746909C343.901091 335.802182 168.331636 138.845091 168.331636 138.845091S72.843636 222.859636 79.569455 306.967273c3.630545 63.650909 55.365818 101.399273 55.365818 101.399272 83.316364 75.194182 285.021091 170.170182 331.845818 191.720728 0.628364 0.186182 3.095273 0.884364 4.468364-0.698182z m-31.185454 64.232727c-0.837818-2.769455-4.235636-2.769455-4.235637-2.769454v-0.093091l-335.802181 10.868364c36.375273 60.183273 97.722182 106.821818 161.605818 92.509091 44.055273-10.193455 143.895273-74.705455 176.872727-96.581819l-0.116364-0.069818c2.56-2.094545 1.698909-3.863273 1.698909-3.863273z m5.12-27.857454c1.629091-2.490182-1.256727-4.654545-1.256728-4.654546C296.541091 538.88 10.658909 397.358545 10.658909 397.358545c-25.902545 74.519273 9.076364 134.609455 9.076364 134.609455 36.375273 71.354182 105.914182 92.904727 105.914182 92.904727a217.832727 217.832727 0 0 0 64.232727 13.032728c5.003636 0.884364 199.68 0.093091 251.810909-0.093091 2.257455 0 3.537455-2.094545 3.537454-2.094546zM467.432727 4.538182c-14.615273 1.186909-54.085818 9.495273-54.085818 9.495273-88.832 21.248-109.847273 96.046545-109.847273 96.046545-16.221091 47.057455 0.418909 98.629818 0.418909 98.629818 29.765818 121.949091 175.685818 322.373818 207.127273 364.450909 2.257455 2.094545 3.956364 1.303273 3.956364 1.303273 3.421091-0.884364 3.095273-3.863273 3.095273-3.863273C566.504727 123.136 467.409455 4.538182 467.409455 4.538182z m111.243637 569.832727c3.211636 1.163636 4.910545-1.792 4.910545-1.792 32.232727-43.170909 177.408-242.501818 206.941091-363.962182 0 0 16.011636-58.810182 0.535273-98.629818 0 0-21.969455-75.892364-110.941091-95.953454 0 0-25.6-6.027636-52.898909-9.588364 0 0-99.514182 118.690909-51.083637 566.458182h0.093091c0.232727 2.862545 2.466909 3.467636 2.466909 3.467636z m79.476363 86.667636s-2.978909 0.395636-3.723636 2.373819c0 0-0.744727 2.769455 1.28 4.142545 32.116364 21.341091 129.605818 84.48 176.523636 96.744727 0 0 86.830545 27.368727 162.234182-92.602181l-336.290909-10.65891z m425.495273-264.261818s-285.44 141.917091-432.965818 234.123637c0 0-2.653091 1.582545-1.698909 4.538181 0 0 1.396364 2.373818 3.421091 2.373819 52.782545 0.093091 252.788364 0.302545 257.815272-0.605091 0 0 25.809455-0.977455 57.809455-12.334546 0 0 71.144727-20.945455 108.055273-95.767272 0.093091 0 33.047273-61.067636 7.563636-132.328728zM623.709091 599.365818s2.327273 1.582545 4.468364 0.302546c48.104727-22.132364 248.226909-116.526545 331.217454-191.325091 0 0 52.48-39.028364 55.249455-101.794909 6.074182-87.04-88.529455-167.703273-88.529455-167.703273s-175.057455 196.375273-303.36 455.586909h0.093091c0-0.116364-1.489455 2.955636 0.861091 4.933818z" fill="#FF2A30" p-id="43681"></path></svg>