<?xml version="1.0" standalone="no"?><!DOCTYPE svg PUBLIC "-//W3C//DTD SVG 1.1//EN" "http://www.w3.org/Graphics/SVG/1.1/DTD/svg11.dtd"><svg t="1771198201391" class="icon" viewBox="0 0 3097 1024" version="1.1" xmlns="http://www.w3.org/2000/svg" p-id="7688" xmlns:xlink="http://www.w3.org/1999/xlink" width="604.8828125" height="200"><path d="M109.654036 140.019769h2834.135091v742.273476H109.654036z" fill="#D40000" p-id="7689"></path><path d="M231.116969 253.047776H641.054366v53.983525L310.405272 710.220758h339.08402v59.044481H222.682043v-53.983526l330.649094-403.189456H231.116969z" fill="#FFFFFF" p-id="7690"></path><path d="M926.15486 322.214168l-96.158155 256.421746h192.31631l-96.158155-256.421746zM885.667216 253.047776h79.288303L1164.019769 769.265239h-72.540362l-47.235585-131.584844h-236.177924l-47.235585 131.584844h-74.227348L885.667216 253.047776z" fill="#FFFFFF" p-id="7691"></path><path d="M1310.787479 522.965404v188.942339h113.028007c38.800659 0 65.792422-8.434926 84.349259-23.617792 18.556837-15.182867 26.991763-38.800659 26.991762-70.853378 0-32.052718-8.434926-55.670511-26.991762-70.853377-18.556837-15.182867-47.235585-23.617792-84.349259-23.617792h-113.028007z m0-212.560132v155.202636h104.593081c33.739703 0 60.731466-6.747941 77.601318-18.556837 16.869852-13.495881 25.304778-32.052718 25.304778-59.044481 0-25.304778-8.434926-45.5486-25.304778-59.044481-16.869852-13.495881-42.174629-18.556837-77.601318-18.556837h-104.593081zM1239.934102 253.047776h180.507414c53.983526 0 94.47117 11.808896 124.836902 33.739703 28.678748 21.930807 43.861614 53.983526 43.861615 94.47117 0 32.052718-6.747941 57.357496-21.930807 75.914333s-37.113674 30.365733-65.792422 35.426689c35.426689 6.747941 62.418451 21.930807 80.975288 45.548599 18.556837 23.617792 28.678748 52.29654 28.678748 87.723229 0 45.5486-15.182867 80.975288-47.235585 106.280066s-75.914333 37.113674-134.958813 37.113674H1239.934102V253.047776z" fill="#FFFFFF" p-id="7692"></path><path d="M1794.952224 522.965404v188.942339h113.028007c37.113674 0 65.792422-8.434926 84.349258-23.617792 18.556837-15.182867 26.991763-38.800659 26.991763-70.853378 0-32.052718-8.434926-55.670511-26.991763-70.853377-18.556837-15.182867-47.235585-23.617792-84.349258-23.617792h-113.028007z m0-212.560132v155.202636h104.593081c33.739703 0 60.731466-6.747941 77.601318-18.556837 16.869852-13.495881 25.304778-32.052718 25.304777-59.044481 0-25.304778-8.434926-45.5486-25.304777-59.044481-16.869852-13.495881-42.174629-18.556837-77.601318-18.556837h-104.593081z m-70.853377-57.357496h180.507413c53.983526 0 94.47117 11.808896 124.836903 33.739703 28.678748 21.930807 43.861614 53.983526 43.861615 94.47117 0 32.052718-6.747941 57.357496-21.930808 75.914333s-37.113674 30.365733-65.792421 35.426689c35.426689 6.747941 62.418451 21.930807 80.975288 45.548599 18.556837 23.617792 28.678748 52.29654 28.678748 87.723229 0 45.5486-15.182867 80.975288-47.235585 106.280066s-75.914333 37.113674-134.958814 37.113674h-188.942339V253.047776z" fill="#FFFFFF" p-id="7693"></path><path d="M2410.701812 253.047776h77.601318l123.149918 185.568369 124.836903-185.568369h74.227347L2648.566722 494.286656l182.194398 274.978583h-77.601318l-143.393739-215.934102-143.39374 215.934102h-75.914333l182.194399-273.291598z" fill="#FFFFFF" p-id="7694"></path><path d="M2206.576606 253.047776h70.853378v516.217463h-70.853378z" fill="#FFFFFF" p-id="7695"></path></svg>