<?xml version="1.0" standalone="no"?><!DOCTYPE svg PUBLIC "-//W3C//DTD SVG 1.1//EN" "http://www.w3.org/Graphics/SVG/1.1/DTD/svg11.dtd"><svg t="1771193390294" class="icon" viewBox="0 0 1040 1024" version="1.1" xmlns="http://www.w3.org/2000/svg" p-id="41080" xmlns:xlink="http://www.w3.org/1999/xlink" width="203.125" height="200"><path d="M380.96 777.376c0-67.2 54.496-121.664 121.664-121.664v-121.664H16v121.664a121.664 121.664 0 0 1 0 243.296v121.664h486.624v-121.664a121.664 121.664 0 0 1-121.664-121.632z" fill="#05BFE0" p-id="41081"></path><path d="M787.136 249.472A243.296 243.296 0 0 0 543.84 6.208v486.624A243.328 243.328 0 0 0 787.136 249.6a243.296 243.296 0 0 0 243.328 243.232V6.208a243.296 243.296 0 0 0-243.328 243.264z" fill="#FF610F" p-id="41082"></path><path d="M335.36 249.536H107.264V97.472h228.096a76.032 76.032 0 0 1 0 152.064z m15.2-242.624a169.888 169.888 0 0 0-15.2-0.736H16v486.656h91.264v-152.096h228.096A167.264 167.264 0 0 0 350.56 6.944z" fill="#000000" p-id="41083"></path><path d="M543.84 1020.704v-137.728l137.696 137.728h-137.696zM821.44 1020.704l-277.6-277.568v-139.872L961.28 1020.704h-139.84zM1030.464 533.984v136.192l-136.192-136.192h136.192zM1030.496 950.016L614.56 534.08h139.84l276.128 276.064-0.032 139.84z" fill="#4F17A8" p-id="41084"></path></svg>
