<?xml version="1.0" standalone="no"?><!DOCTYPE svg PUBLIC "-//W3C//DTD SVG 1.1//EN" "http://www.w3.org/Graphics/SVG/1.1/DTD/svg11.dtd"><svg t="1771223217571" class="icon" viewBox="0 0 1024 1024" version="1.1" xmlns="http://www.w3.org/2000/svg" p-id="5998" xmlns:xlink="http://www.w3.org/1999/xlink" width="200" height="200"><path d="M626.3552 409.6h0.3584s-1.9968 52.5568-18.2016 64.1792c-44.9024 32.256-61.0048 92.928-58.5984 175.2064 0.6656 39.4752 0 67.8144 0 67.8144h-76.8v-68.608c-0.7936-58.2912 22.4-139.4432 78.592-179.2a86.0928 86.0928 0 0 0 23.808-59.2128h-0.3328c0-1.8432 0.5632-3.6096 0.5632-5.504a102.4 102.4 0 0 0-204.8 0c0-0.768-51.2 0.2816-51.2 0a153.6 153.6 0 0 1 307.2 0c-0.0256 1.6896-0.4864 3.4048-0.5888 5.3248zM550.912 844.8h-76.8v-51.2h76.8v51.2z m-68.4288 179.2a478.3616 478.3616 0 0 1-342.5024-144.768 23.1936 23.1936 0 0 1-4.864-4.6336l-0.2816-0.256a23.7824 23.7824 0 0 1-5.12-14.464 24.2432 24.2432 0 0 1 24.1408-24.32 23.68 23.68 0 0 1 19.5584 10.88l0.8448-0.6144a430.976 430.976 0 0 0 308.2752 129.5872 438.4768 438.4768 0 1 0-409.856-294.4 25.8816 25.8816 0 0 1 1.9456 20.992 24.1408 24.1408 0 0 1-29.568 17.2032 23.68 23.68 0 0 1-12.8-9.216l-0.256 0.1792c0-0.256-0.1536-0.512-0.256-0.768a23.808 23.808 0 0 1-4.1984-12.6208A482.1248 482.1248 0 0 1 0 537.6C0 268.9792 241.6128 25.6 508.0832 25.6A484.4544 484.4544 0 0 1 990.72 512c0 268.6208-241.7408 512-508.2368 512zM100.608 759.68a26.2912 26.2912 0 0 1 17.7408 23.3984 24.6528 24.6528 0 0 1-22.7584 24.0384c40.6528-2.4064-36.096 13.2352-24.5248-30.2592a24.064 24.064 0 0 1 29.5424-17.1776z" fill="#48BCF5" p-id="5999"></path><path d="M512 1024a509.6704 509.6704 0 0 1-363.52-152.3712 24.5248 24.5248 0 0 1-5.12-4.8896l-0.3072-0.256a25.0368 25.0368 0 0 1-5.5552-15.36 25.6 25.6 0 0 1 25.6-25.6 25.1648 25.1648 0 0 1 20.7616 11.4432l0.896-0.6656a465.0752 465.0752 0 1 0-107.8016-173.3632 26.9568 26.9568 0 0 1 2.0736 22.0928 25.6 25.6 0 0 1-31.36 18.0992 25.0624 25.0624 0 0 1-13.5936-9.7024l-0.2816 0.2048c0-0.256-0.1536-0.5376-0.256-0.8192a24.9344 24.9344 0 0 1-4.4544-13.2864A503.4496 503.4496 0 0 1 0 512a512 512 0 1 1 512 512zM106.752 745.7536a27.7504 27.7504 0 0 1 18.8416 24.6528 26.112 26.112 0 0 1-24.1664 25.2928c43.1616-2.56-38.4 13.9264-26.0352-31.8464a25.6 25.6 0 0 1 31.36-18.0992zM665.0624 373.76h0.3328s-1.9968 52.5568-18.2016 64.1792a206.4384 206.4384 0 0 0-84.1984 175.2064c0.6912 39.4752 0 67.8144 0 67.8144h-51.2v-68.608c-0.7936-58.2912 22.4256-139.4432 78.592-179.2a86.0928 86.0928 0 0 0 23.808-59.2128h-0.3072c0-1.8432 0.5376-3.6096 0.5376-5.504a102.4 102.4 0 0 0-204.8 0c0-0.768-51.2 0.2816-51.2 0a153.6 153.6 0 0 1 307.2 0c-0.0256 1.8176-0.4864 3.5328-0.5632 5.3248z m-101.0688 435.3792h-51.2v-51.2h51.2v51.2z" fill="#4076FE" p-id="6000"></path></svg>