<?xml version="1.0" standalone="no"?><!DOCTYPE svg PUBLIC "-//W3C//DTD SVG 1.1//EN" "http://www.w3.org/Graphics/SVG/1.1/DTD/svg11.dtd"><svg t="1771198251812" class="icon" viewBox="0 0 1024 1024" version="1.1" xmlns="http://www.w3.org/2000/svg" p-id="9988" xmlns:xlink="http://www.w3.org/1999/xlink" width="200" height="200"><path d="M640.512 556.672c50.486857 0 123.574857-10.514286 123.574857-70.966857a57.179429 57.179429 0 0 0-1.28-13.897143l-30.098286-131.492571c-6.930286-28.946286-13.001143-42.057143-63.451428-67.456C630.089143 252.708571 544.768 219.428571 519.552 219.428571c-23.478857 0-30.336 30.482286-58.331429 30.482286-28.013714 0-46.976-22.747429-72.192-22.747428-25.234286 0-40.027429 16.603429-52.187428 50.797714q-33.938286 96.365714-38.326857 110.336c-0.694857 2.56-0.987429 5.248-0.896 7.899428 0 37.449143 146.541714 160.292571 342.875428 160.292572" fill="#F00001" p-id="9989"></path><path d="M771.803429 510.244571c6.985143 33.28 6.985143 36.754286 6.985142 41.161143 0 56.886857-63.524571 88.466286-147.053714 88.466286-188.708571 0.128-354.066286-111.213714-354.066286-184.795429 0-10.24 2.048-20.388571 6.089143-29.805714-67.84 3.419429-155.757714 15.634286-155.757714 93.714286C128 646.912 429.092571 804.571429 667.465143 804.571429c182.802286 0 228.882286-83.218286 228.882286-148.900572 0-51.730286-44.416-110.372571-124.452572-145.408" fill="#F00001" p-id="9990"></path><path d="M763.501714 475.867429v0zM763.538286 475.922286l-0.018286-0.054857v0.036571c0 0.164571 0.237714 2.249143 0.146286 5.650286 0-1.828571 0-3.620571-0.146286-5.485715a65.462857 65.462857 0 0 1-23.186286 52.205715c-88.045714 63.122286-232.064 8.045714-320.292571-33.371429-48.091429-23.332571-94.482286-54.308571-122.404572-101.12-90.532571 132.754286 127.616 210.870857 224.438858 235.593143 82.322286 21.522286 217.965714 43.209143 253.165714-59.52 8.685714-31.579429-0.603429-64.457143-11.702857-93.933714z m0.109714 0.457143c2.066286 7.296 3.657143 14.189714 5.028571 20.900571l-5.028571-20.900571z" fill="#000000" p-id="9991"></path></svg>
