<?xml version="1.0" standalone="no"?><!DOCTYPE svg PUBLIC "-//W3C//DTD SVG 1.1//EN" "http://www.w3.org/Graphics/SVG/1.1/DTD/svg11.dtd"><svg t="1771192725976" class="icon" viewBox="0 0 1278 1024" version="1.1" xmlns="http://www.w3.org/2000/svg" p-id="27959" xmlns:xlink="http://www.w3.org/1999/xlink" width="249.609375" height="200"><path d="M186.97049 390.020858c249.283591-143.926213 654.058848-143.926213 903.342438 0 249.283591 143.921015 249.283591 377.621133 0 521.542148-249.283591 143.926213-654.058848 143.926213-903.342438 0-249.288789-143.921015-249.288789-377.621133 0-521.542148z" fill="#4467AE" p-id="27960"></path><path d="M0.005198 368.719633h1277.273022v282.072299H0.005198z" fill="#4467AE" p-id="27961"></path><path d="M186.97049 107.948559c249.283591-143.926213 654.058848-143.926213 903.342438 0 249.283591 143.921015 249.283591 377.621133 0 521.542148-249.283591 143.926213-654.058848 143.926213-903.342438 0-249.288789-143.921015-249.288789-377.621133 0-521.542148z" fill="#6D8ACA" p-id="27962"></path><path d="M436.243685 524.263279l57.323062 33.095388-164.5621-6.819719-11.814955-95.008246 57.323063 33.095388 148.037797-85.475194 61.73093 35.642386-148.037797 85.469997zM846.320857 216.221989l-57.323063-33.09019 164.562101 6.819719 11.814954 95.008246-57.323062-33.095388-148.037797 85.469996-61.73093-35.637188 148.037797-85.475195zM445.418078 199.744468l57.323062-33.09019-164.5621 6.819718-11.814955 95.008246 57.323063-33.095388 148.042995 85.469997 61.730929-35.637189L445.418078 199.744468zM865.501316 513.560686l-57.323063 33.095388 164.5621-6.819718 11.814955-95.008246-57.323062 33.095388-148.037797-85.469997-61.73093 35.637189 148.037797 85.469996z" fill="#FFFFFF" p-id="27963"></path></svg>
