<?xml version="1.0" standalone="no"?><!DOCTYPE svg PUBLIC "-//W3C//DTD SVG 1.1//EN" "http://www.w3.org/Graphics/SVG/1.1/DTD/svg11.dtd"><svg t="1771220062038" class="icon" viewBox="0 0 1024 1024" version="1.1" xmlns="http://www.w3.org/2000/svg" p-id="10545" xmlns:xlink="http://www.w3.org/1999/xlink" width="200" height="200"><path d="M648 377.6c18.2-2.2 37-3.5 56-4V254c-14.6 11.2-33.7 21-56 29.4v94.2zM856 894.3c35.5-10.8 56-24.6 56-35.6v-86c-14 9.7-33.3 17.8-56 24v97.6zM856 780c26.5-7.9 45.9-17.7 56-28V634.1c-14 9.7-33.3 17.8-56 24V780zM856 527.7v113.6c26.5-7.9 45.9-17.7 56-28V504.7c-14.8 9.3-34 17-56 23z" fill="#A0D3F8" p-id="10546"></path><path d="M939 439.2c-21.6-40.9-110.9-63.2-203-65.6V200c0-77.9-169-120-328-120S80 122.1 80 200v624c0 77.9 169 120 328 120 61.7 0 121.3-6 172.9-17.2 40 11.3 89.7 17.2 139.1 17.2 111.3 0 224-29.3 224-85.3v-408c0-4.6-1.9-8.6-5-11.5zM408 112c183.4 0 296 51.3 296 88s-112.6 88-296 88-296-51.3-296-88 112.6-88 296-88zM112 254c56.4 43.2 178.9 66 296 66 86.7 0 176.4-12.5 240-36.6 22.3-8.4 41.4-18.2 56-29.4v119.6c-19 0.5-37.8 1.8-56 4-70 8.4-129.9 29.1-147 61.6-3 2.9-5 7-5 11.5v48.8c-28.5 2.8-57.9 4.6-88 4.6-155.1 0-266.5-36.1-296-75.6V254z m0 197.2C159.4 492 272.6 520 408 520c30.1 0 59.5-1.7 88-4.5v191.9c-28.5 2.8-57.9 4.6-88 4.6-155.1 0-266.5-36.1-296-75.6V451.2zM408 912c-183.4 0-296-51.2-296-88V659.2C159.4 700 272.6 728 408 728c30.1 0 59.4-1.7 88-4.5v135.2c0 17.8 11.4 32.9 30.5 45.2-37.3 5.2-77.3 8.1-118.5 8.1z m504-53.3c0 10.9-20.5 24.8-56 35.6-33.4 10.2-80.1 17.7-136 17.7-115.4 0-192-32.1-192-53.3v-86c38.3 26.5 116.7 40.6 192 40.6 47.7 0 96.7-5.7 136-16.6 22.7-6.3 42-14.3 56-24v86z m0-106.7c-10.1 10.3-29.5 20.1-56 28-34.7 10.3-81.4 17.3-136 17.3-96.3 0-168.7-21.6-192-45.3V634.1c38.3 26.5 116.7 40.6 192 40.6 47.7 0 96.7-5.7 136-16.6 22.7-6.3 42-14.3 56-24V752z m0-138.7c-10.1 10.3-29.5 20.1-56 28-34.7 10.3-81.4 17.3-136 17.3-96.3 0-168.7-21.6-192-45.3V504.7c41.3 25.9 116.9 39.3 192 39.3 48.2 0 96.6-5.5 136-16.3 22-6 41.2-13.7 56-23v108.6zM720 512c-115.4 0-192-32.1-192-53.3 0-21.2 76.6-53.3 192-53.3s192 32.1 192 53.3c0 21.2-76.6 53.3-192 53.3z" fill="#108EE9" p-id="10547"></path></svg>