<?xml version="1.0" standalone="no"?><!DOCTYPE svg PUBLIC "-//W3C//DTD SVG 1.1//EN" "http://www.w3.org/Graphics/SVG/1.1/DTD/svg11.dtd"><svg t="1771192778375" class="icon" viewBox="0 0 1024 1024" version="1.1" xmlns="http://www.w3.org/2000/svg" p-id="32501" xmlns:xlink="http://www.w3.org/1999/xlink" width="200" height="200"><path d="M236.719 354.01l728.453-211.92v609.24l-728.453 253.873V354.01z" fill="#f77e53" p-id="32502"></path><path d="M236.719 354.01L60.139 210.523v607.034l176.58 187.646V354.01z" fill="#f77e53" p-id="32503"></path><path d="M749.28 37.675L60.139 210.523l176.58 143.486L965.172 142.09 749.28 37.675z" fill="#3ED6FF" p-id="32504"></path><path d="M236.719 546.382v-2.324l117.332-35.969v128.805l-117.332 37.631v-5.31L60.139 512.723v29.907l176.58 156.506v-1.544l269.645-86.425V745.71l-269.645 86.425v-5.854L60.139 656.534v31.568l176.58 169.746v-2.544l117.332-37.631v146.679l22.073-7.722V810.613l309.034-99.003v137.295l22.066-7.724v-136.75l257.948-82.672v-23.171l-125.495 40.175V504.221l125.495-40.175v-23.17l-257.948 82.661V399.922l257.948-78.909v-23.08l-125.495 38.422V194.96H817.61v148.238l-289.179 88.513V290.873h-22.067v147.576l-269.645 82.555v-2.985L60.139 374.87v28.362l176.58 143.15z m291.712 57.828l289.179-92.707v134.439l-289.179 92.706V604.21zM376.124 501.352l309.034-94.589v124.054l-309.034 99.016V501.352z" fill="#FFFFFF" p-id="32505"></path><path d="M973.947 747.917l-728.44 257.17s-10.929-67.655 13.357-189.062c24.273-121.42 91.603-221.85 91.603-221.85s46.367 94.926 86.087 99.34c39.74 4.413 19.873-157.83 19.873-157.83s15.454-25.391 59.595 27.584c44.159 52.986 75.053 126.923 139.072 81.672 106.623-75.376-52.986-192.032-46.354-192.032 6.608 0 69.537-17.667 129.144 37.513 59.58 55.193 52.519 139.956 88.281 112.58 37.526-28.699 79.479-176.587 79.479-176.587s11.033 77.248 24.273 139.062c13.241 61.813 44.03 70.639 44.03 70.639v111.801z" fill="#F7DD18" p-id="32506"></path><path d="M760.313 20.021L23.488 209.862l209.259 142.604 767.733-215.878L760.313 20.021z" fill="#f77e53" p-id="32507"></path><path d="M232.747 379.829v-27.363l769.29-215.878v23.61l-769.29 219.631z m0-27.364v27.363L23.488 236.134v-26.272l209.259 142.603z" fill="#8B4E17" p-id="32508"></path></svg>
