<?xml version="1.0" standalone="no"?><!DOCTYPE svg PUBLIC "-//W3C//DTD SVG 1.1//EN" "http://www.w3.org/Graphics/SVG/1.1/DTD/svg11.dtd"><svg t="1771220023239" class="icon" viewBox="0 0 1445 1024" version="1.1" xmlns="http://www.w3.org/2000/svg" p-id="8120" xmlns:xlink="http://www.w3.org/1999/xlink" width="282.2265625" height="200"><path d="M616.141123 199.139797h17.762159c102.126019 0 184.914351 82.788332 184.914351 184.91435 0 102.124191-82.788332 184.914351-184.914351 184.914351H184.914351C82.788332 568.968498 0 486.178339 0 384.054147c0-92.502869 67.919514-169.140793 156.611507-182.763078C171.599128 87.683069 268.821271 0 386.523449 0c116.956453 0 213.69424 86.577275 229.617674 199.139797z" fill="#0F62FE" p-id="8121"></path><path d="M1098.097339 436.020984h40.967384c150.910727 0 273.248102 122.337375 273.248102 273.249929v26.864398c0 150.912555-122.337375 273.24993-273.24993 273.24993H416.107552c-150.912555 0-273.24993-122.337375-273.24993-273.24993v-26.864398c0-140.699039 106.340831-256.560665 243.035251-271.597636 23.971056-175.314962 174.320661-310.386332 356.217382-310.386331 181.324632 0 331.299547 134.22329 355.987084 308.734038z" fill="#C1D0FF" fill-opacity=".4" p-id="8122"></path><path d="M1098.097339 436.020984l-14.477677 2.048917 1.780237 12.573152h12.69744v-14.622069z m-712.204466 1.652293l1.597461 14.534338 11.34307-1.248359 1.546284-11.306516-14.486815-1.979463z m712.204466 12.969776h40.967384v-29.244139h-40.967384v29.244139z m40.967384 0c142.835689 0 258.626032 115.792171 258.626032 258.62786h29.24414c0-158.987593-128.884407-287.872-287.870172-287.871999v29.244139z m258.626032 258.62786v26.864398h29.24414v-26.864398h-29.24414z m0 26.864398c0 142.835689-115.790343 258.62786-258.62786 258.62786v29.24414c158.987593 0 287.872-128.884407 287.872-287.872h-29.24414z m-258.62786 258.62786H416.107552v29.24414h722.955343v-29.24414z m-722.955343 0c-142.835689 0-258.62786-115.792171-258.62786-258.62786h-29.24414c0 158.987593 128.884407 287.872 287.872 287.872v-29.24414z m-258.62786-258.62786v-26.864398h-29.24414v26.864398h29.24414z m0-26.864398c0-133.161362 100.647362-242.834197 230.010642-257.063298l-3.19675-29.068675C240.269851 438.981953 128.235552 561.03237 128.235552 709.270913h29.24414z m242.899996-269.618173c22.995033-168.170253 167.243579-297.743725 341.730567-297.743725v-29.244139c-189.306455 0-345.757119 140.569268-370.706026 323.027111l28.975459 3.960753zM742.110255 141.909015c173.938659 0 317.828965 128.760119 341.509407 296.160886l28.957182-4.097835c-25.694632-181.620729-181.755984-321.30719-370.466589-321.30719v29.244139z" fill="#FFFFFF" fill-opacity=".3" p-id="8123"></path><path d="M581.227276 615.954692m43.866209 0l310.718984 0q43.866209 0 43.86621 43.866209l0 5.483276q0 43.866209-43.86621 43.86621l-310.718984 0q-43.866209 0-43.866209-43.86621l0-5.483276q0-43.866209 43.866209-43.866209Z" fill="#FFFFFF" p-id="8124"></path></svg>