<?xml version="1.0" standalone="no"?><!DOCTYPE svg PUBLIC "-//W3C//DTD SVG 1.1//EN" "http://www.w3.org/Graphics/SVG/1.1/DTD/svg11.dtd"><svg t="1771220161550" class="icon" viewBox="0 0 1024 1024" version="1.1" xmlns="http://www.w3.org/2000/svg" p-id="20876" xmlns:xlink="http://www.w3.org/1999/xlink" width="200" height="200"><path d="M790 180.7c12.8 12.3 19.2 29.2 19.2 50.7 0 14.5-4.8 28.3-14.3 41.3-4.3 5.5-13.7 15-28.2 28.6-10.3 9-17.3 16.7-21 22.9-5.8 8.5-8.6 18.7-8.6 30.4v6c0 4-3.2 7.2-7.2 7.2h-0.3c-4 0-7.2-3.2-7.2-7.2v-6c0-10 2.1-19.2 6.4-27.4 5-11.3 15.3-23.9 30.8-38 12.3-11.8 19.9-19.7 22.9-23.7 8-10.8 12-21.9 12-33.5 0-17.3-5-31.3-15-42.1-10.8-10.8-25.9-16.2-45.5-16.2-22.1 0-38.6 7.4-49.6 22.2-8.9 11.6-14 26.3-15.2 44-0.3 3.8-3.4 6.7-7.2 6.7-4.1 0-7.4-3.4-7.2-7.5 1.2-21.1 7.5-38.5 19-52.2 14-17.8 34.2-26.7 60.5-26.7 23.6 0.2 42.1 7 55.7 20.5z m-49.3 227.8c3 2.5 4.5 6 4.5 10.5 0 4-1.5 7.5-4.5 10.5s-6.5 4.5-10.5 4.5c-4.3 0-7.9-1.5-10.9-4.5s-4.5-6.5-4.5-10.5c0-4.5 1.5-8 4.5-10.5 3-3 6.6-4.5 10.9-4.5 4 0 7.5 1.5 10.5 4.5z" fill="#90B750" p-id="20877"></path></svg>